<?xml version="1.0" encoding="utf-8"?>
<!-- Generator: Adobe Illustrator 26.4.1, SVG Export Plug-In . SVG Version: 6.00 Build 0)  -->
<svg version="1.1" id="Layer_1" xmlns="http://www.w3.org/2000/svg" xmlns:xlink="http://www.w3.org/1999/xlink" x="0px" y="0px"
	 viewBox="0 0 595.28 841.89" style="enable-background:new 0 0 595.28 841.89;" xml:space="preserve">
<style type="text/css">
	.st0{fill:#0E1519;}
</style>
<path class="st0" d="M455.77,576.88c-4.74,13.36-32.66,13.83-35.35,13.85c-29.35,0.21-49.46-24.48-58.79-32.43
	c-16.61-14.15-30.31-31.66-41.16-52.52c-3.38-6.31-8.28-5.84-14.29-5.19c-28.63,2.63-56.36-0.63-82.89-12.51
	c-46.86-21.01-79.03-54.5-80.24-108.24c-1.33-52.19,24.06-91.38,68.18-117.35c53.15-31.34,131.81-21.17,176.98,21.18
	c19.19,18.12,31.09,40.56,36.51,67.56c5.55,41.13-4.04,78.75-34.38,109.23c-5.54,5.57-6.09,10.09-6.4,11.05
	C373.17,504.8,465.13,550.51,455.77,576.88z M331.37,331.33c-1.87-6.55-7.43-26.08-22.61-31.31c-6.01-2.07-11.89-1.32-13.85-1.01
	c-8.81,1.38-16.38,6.69-22.54,14.17c-24.08,29.02-33.75,63.97-35.04,100.93c-0.3,13.83,5.66,26.19,19.88,31.01
	c5.96,2.1,11.63,2.55,16.93,1.52c5.76-1.12,11.9-4.15,18.85-11.51C345.2,379.89,331.37,331.33,331.37,331.33z"/>
</svg>
